<svg width="24" height="23" viewBox="0 0 24 23" fill="none" xmlns="http://www.w3.org/2000/svg">
<path d="M12 1.9165L6.5 10.5415H17.5L12 1.9165ZM12 5.5965L13.93 8.62484H10.06L12 5.5965ZM17.5 12.4582C15.01 12.4582 13 14.3844 13 16.7707C13 19.1569 15.01 21.0832 17.5 21.0832C19.99 21.0832 22 19.1569 22 16.7707C22 14.3844 19.99 12.4582 17.5 12.4582ZM17.5 19.1665C16.837 19.1665 16.2011 18.9141 15.7322 18.4648C15.2634 18.0155 15 17.4061 15 16.7707C15 16.1353 15.2634 15.5259 15.7322 15.0766C16.2011 14.6273 16.837 14.3748 17.5 14.3748C18.163 14.3748 18.7989 14.6273 19.2678 15.0766C19.7366 15.5259 20 16.1353 20 16.7707C20 17.4061 19.7366 18.0155 19.2678 18.4648C18.7989 18.9141 18.163 19.1665 17.5 19.1665ZM3 20.604H11V12.9373H3V20.604ZM5 14.854H9V18.6873H5V14.854Z" fill="#293345"/>
</svg>
