<svg width="24" height="24" viewBox="0 0 24 24" fill="none" xmlns="http://www.w3.org/2000/svg">
<path d="M12 5.9C12.2758 5.9 12.5489 5.95432 12.8036 6.05985C13.0584 6.16539 13.2899 6.32007 13.4849 6.51508C13.6799 6.71008 13.8346 6.94158 13.9401 7.19636C14.0457 7.45115 14.1 7.72422 14.1 8C14.1 8.27578 14.0457 8.54885 13.9401 8.80364C13.8346 9.05842 13.6799 9.28992 13.4849 9.48492C13.2899 9.67993 13.0584 9.83461 12.8036 9.94015C12.5489 10.0457 12.2758 10.1 12 10.1C11.443 10.1 10.9089 9.87875 10.5151 9.48492C10.1212 9.0911 9.9 8.55695 9.9 8C9.9 7.44305 10.1212 6.9089 10.5151 6.51508C10.9089 6.12125 11.443 5.9 12 5.9V5.9ZM12 14.9C14.97 14.9 18.1 16.36 18.1 17V18.1H5.9V17C5.9 16.36 9.03 14.9 12 14.9V14.9ZM12 4C9.79 4 8 5.79 8 8C8 10.21 9.79 12 12 12C14.21 12 16 10.21 16 8C16 5.79 14.21 4 12 4ZM12 13C9.33 13 4 14.34 4 17V20H20V17C20 14.34 14.67 13 12 13Z" fill="#293345"/>
</svg>
