<svg width="24" height="24" viewBox="0 0 24 24" fill="none" xmlns="http://www.w3.org/2000/svg">
<path d="M21 7.28V5C21 3.9 20.1 3 19 3H5C4.46957 3 3.96086 3.21071 3.58579 3.58579C3.21071 3.96086 3 4.46957 3 5V19C3 19.5304 3.21071 20.0391 3.58579 20.4142C3.96086 20.7893 4.46957 21 5 21H19C20.1 21 21 20.1 21 19V16.72C21.3023 16.5455 21.5536 16.2949 21.7291 15.9932C21.9045 15.6914 21.9979 15.349 22 15V9C21.9979 8.65097 21.9045 8.30857 21.7291 8.00683C21.5536 7.70509 21.3023 7.45451 21 7.28ZM20 9V15H13V9H20ZM5 19V5H19V7H13C11.9 7 11 7.9 11 9V15C11 16.1 11.9 17 13 17H19V19H5Z" fill="#293345"/>
<path d="M16 13.5C16.8284 13.5 17.5 12.8284 17.5 12C17.5 11.1716 16.8284 10.5 16 10.5C15.1716 10.5 14.5 11.1716 14.5 12C14.5 12.8284 15.1716 13.5 16 13.5Z" fill="#293345"/>
</svg>
